PathFileType	4	(x/y/z)	S05_P20_T18
DataRate	CameraRate	NumFrames	NumMarkers	Units	OrigDataRate	OrigDataStartFrame	OrigNumFrames
240	240	4	50	mm	240	132	351
Frame#	Time	Sternum			R.Acromium			L.Acromium			Top.Head			R.ASIS			L.ASIS			R.PSIS			L.PSIS			R.Great.Tro			L.Great.Tro			R.Iliac.Crest			L.Iliac.Crest			V.Sacral			R.Thigh.Upper.Post			R.Thigh.Lower.Ant			R.Thigh.Lower.Post			R.Thigh.Upper.Ant			R.Knee.Lat			R.Knee.Med			R.Shank.Upper.Post			R.Shank.Lower.Ant			R.Shank.Lower.Post			R.Shank.Upper.Ant			R.Ankle.Lat			R.Ankle.Med			R.Heel.Upper			R.Heel.Med			R.Heel.Lat			R.Toe.Lat			R.Toe.Med			R.Toe.Tip			L.Thigh.Upper.Post			L.Thigh.Lower.Ant			L.Thigh.Lower.Post			L.Thigh.Upper.Ant			L.Knee.Lat			L.Shank.Upper.Post			L.Shank.Lower.Ant			L.Shank.Lower.Post			L.Shank.Upper.Ant			L.Ankle.Lat			L.Ankle.Med			L.Heel.Upper			L.Heel.Med			L.Heel.Lat			L.Toe.Lat			L.Toe.Med			L.Toe.Tip			Cervical.Spine			Back			
		X1	Y1	Z1	X2	Y2	Z2	X3	Y3	Z3	X4	Y4	Z4	X5	Y5	Z5	X6	Y6	Z6	X7	Y7	Z7	X8	Y8	Z8	X9	Y9	Z9	X10	Y10	Z10	X11	Y11	Z11	X12	Y12	Z12	X13	Y13	Z13	X14	Y14	Z14	X15	Y15	Z15	X16	Y16	Z16	X17	Y17	Z17	X18	Y18	Z18	X19	Y19	Z19	X20	Y20	Z20	X21	Y21	Z21	X22	Y22	Z22	X23	Y23	Z23	X24	Y24	Z24	X25	Y25	Z25	X26	Y26	Z26	X27	Y27	Z27	X28	Y28	Z28	X29	Y29	Z29	X30	Y30	Z30	X31	Y31	Z31	X32	Y32	Z32	X33	Y33	Z33	X34	Y34	Z34	X35	Y35	Z35	X36	Y36	Z36	X37	Y37	Z37	X38	Y38	Z38	X39	Y39	Z39	X40	Y40	Z40	X41	Y41	Z41	X42	Y42	Z42	X43	Y43	Z43	X44	Y44	Z44	X45	Y45	Z45	X46	Y46	Z46	X47	Y47	Z47	X48	Y48	Z48	X49	Y49	Z49	X50	Y50	Z50	

132	0.54583	-663.08	1231.6	308.03	-748.31	1500.1	464.16	-751.95	1523.7	145.71	-749.05	1801.6	303.63	-741.71	986.78	425.34	-737.93	992.52	175.99	-944	1004.2	343.15	-941.06	1012.3	251.74	-817.63	904.06	488.45	-838.14	919.64	101.69	-832.38	1066.9	467.19	-827.96	1071.8	132.34	-955.18	972.27	307.89	-687.95	701.56	476.59	-621.89	651.71	416.2	-674.88	615.12	450.68	-639.37	736.34	440.88	-651.6	527.36	431.4	-646.79	516.02	299.8	-671.04	277.06	417.36	-595.23	228.21	420.96	-653.2	203.42	401.14	-612.52	302.98	434.87	-582.96	124.21	404.08	-578.49	148.81	316.72	-637.81	66.003	338.72	-620.83	36.449	311.26	-626.28	39.185	376	-465.46	55.673	436.31	-429.08	74.155	320.62	-374.82	107.44	368.11	-872.78	684.4	109.83	-803.27	599.79	128.15	-875.23	589.69	124.63	-794.1	689.18	111.58	-890.08	498.25	131.16	-1046.1	359.63	144.1	-1019.8	274.83	147.12	-1085.8	299.64	166.19	-986.37	335.37	131.19	-1134.6	168.96	179.97	-1089.9	166.36	263.2	-1206.1	150.02	240.07	-1201.7	122.8	271.8	-1218.4	125.31	212.78	-1066.5	45.869	139.45	-1027.9	47.582	255.92	-974.3	43.184	196.14	-800.14	1545.1	310.81	-929.61	1275.4	300.29
133	0.55	-657.1	1231.9	308.72	-742.51	1500	465.21	-746.13	1524	146.76	-743.31	1801.8	304.77	-735.71	987.13	425.83	-731.85	992.55	176.48	-937.99	1004.1	343.37	-934.95	1012	251.92	-811.56	904.35	488.83	-831.45	919.17	102.03	-826.41	1067.2	467.55	-821.91	1071.7	132.73	-949.07	972.12	308.17	-681.95	701.88	476.81	-615.74	652.05	416.58	-668.82	615.45	450.94	-633.26	736.68	441.26	-645.62	527.63	431.89	-640.93	516.33	300.4	-667.38	277.37	417.73	-592.1	227.68	421.13	-650.38	203.58	401.47	-608.52	302.65	435.15	-581.27	123.76	404.16	-576.56	148.3	316.8	-637.02	66.552	338.75	-620.57	36.727	311.26	-625.95	39.52	376	-464.74	53.638	436.31	-428.09	71.576	320.57	-373.26	103.98	368.06	-864.29	683.52	109.76	-794	599.45	127.66	-865.95	588.76	124.2	-785.56	688.98	111.51	-880.23	497.61	130.41	-1038.2	361.64	143.92	-1013.2	276.49	146.62	-1078.7	302.32	166	-978.76	336.53	130.63	-1129.7	172.8	179.79	-1084.7	169.11	262.69	-1201	156.08	240.14	-1197.3	128.93	271.97	-1214.1	131.63	213.01	-1065.5	47.279	139.43	-1026.7	48.167	255.73	-973.83	42.821	196.01	-794.35	1545.2	311.91	-923.69	1275.5	300.92
134	0.55417	-651.13	1232.2	309.4	-736.71	1500	466.24	-740.36	1524.4	147.8	-737.55	1802	305.92	-729.72	987.54	426.33	-725.8	992.63	176.99	-931.99	1004.2	343.59	-928.86	1011.7	252.09	-805.49	904.69	489.22	-824.76	918.72	102.38	-820.46	1067.5	467.92	-815.89	1071.7	133.13	-942.98	972.03	308.44	-676.01	702.24	477.07	-609.68	652.4	416.99	-662.85	615.81	451.26	-627.24	737.04	441.65	-639.75	527.89	432.43	-635.19	516.65	301.02	-663.82	277.71	418.16	-589.07	227.18	421.35	-647.67	203.78	401.85	-604.63	302.35	435.47	-579.67	123.35	404.28	-574.74	147.85	316.92	-636.28	67.082	338.81	-620.32	37.024	311.29	-625.63	39.847	376.02	-464.09	51.736	436.33	-427.19	69.178	320.52	-371.82	100.71	368.03	-855.64	682.65	109.67	-784.51	599.17	127.14	-856.45	587.84	123.72	-776.86	688.82	111.42	-870.1	496.99	129.63	-1030	363.74	143.72	-1006.2	278.25	146.1	-1071.3	305.11	165.81	-970.83	337.76	130.07	-1124.5	176.81	179.61	-1079.2	172	262.16	-1195.4	162.37	240.22	-1192.5	135.3	272.16	-1209.5	138.22	213.24	-1064.4	48.896	139.41	-1025.4	48.888	255.51	-973.24	42.477	195.84	-788.57	1545.4	312.99	-917.77	1275.6	301.55
135	0.55833	-645.17	1232.5	310.06	-730.91	1500	467.26	-734.65	1524.8	148.84	-731.79	1802.2	307.05	-723.75	988	426.84	-719.77	992.74	177.51	-926.01	1004.3	343.8	-922.8	1011.5	252.27	-799.41	905.08	489.62	-818.05	918.29	102.74	-814.52	1067.8	468.3	-809.89	1071.7	133.54	-936.91	972.01	308.72	-670.14	702.63	477.38	-603.72	652.76	417.43	-656.96	616.2	451.64	-621.3	737.42	442.06	-634.02	528.15	433.01	-629.59	516.97	301.67	-660.37	278.07	418.65	-586.14	226.73	421.59	-645.05	204.01	402.29	-600.86	302.08	435.83	-578.16	122.98	404.41	-573.04	147.46	317.06	-635.58	67.588	338.89	-620.09	37.333	311.32	-625.33	40.164	376.05	-463.49	49.969	436.36	-426.37	66.956	320.49	-370.5	97.631	368.01	-846.81	681.77	109.54	-774.82	598.93	126.58	-846.73	586.92	123.21	-768	688.72	111.3	-859.69	496.38	128.82	-1021.4	365.93	143.5	-998.99	280.1	145.57	-1063.5	308	165.6	-962.58	339.06	129.49	-1118.9	180.97	179.43	-1073.4	175.02	261.63	-1189.5	168.87	240.29	-1187.2	141.91	272.35	-1204.4	145.08	213.45	-1063.1	50.736	139.38	-1023.8	49.766	255.26	-972.5	42.161	195.65	-782.81	1545.6	314.07	-911.85	1275.8	302.18
